# xmcd CD database file
#
# Track frame offsets:
#	150
#	15169
#	28936
#	43191
#	59701
#	78931
#	95206
#	107894
#	125407
#	144694
#	163299
#
# Disc length: 2412 seconds
#
# Revision: 2
# Processed by: cddbd v1.5.2PL0 Copyright (c) Steve Scherf et al.
# Submitted via: CDex 1.70beta2
#
DISCID=9d096a0b
DTITLE=Orianthi - Believe
DYEAR=2009
DGENRE=Rock
TTITLE0=According to You
TTITLE1=Suffocated
TTITLE2=Bad News
TTITLE3=Believe
TTITLE4=Feels Like Home
TTITLE5=Think Like a Man
TTITLE6=What's It Gonna Be
TTITLE7=Untogether
TTITLE8=Drive Away
TTITLE9=Highly Strung
TTITLE10=God Only Knows
EXTD=YEAR: 2009
EXTT0=
EXTT1=
EXTT2=
EXTT3=
EXTT4=
EXTT5=
EXTT6=
EXTT7=
EXTT8=
EXTT9=
EXTT10=
PLAYORDER=
